<svg width="13" height="12" viewBox="0 0 13 12" fill="none" xmlns="http://www.w3.org/2000/svg">
<path d="M10.7757 1.26563C10.9811 1.05609 11.2545 0.940239 11.5381 0.942538C11.8218 0.944838 12.0935 1.0651 12.2959 1.27796C12.4984 1.49081 12.6157 1.77961 12.6232 2.08341C12.6307 2.3872 12.5278 2.68224 12.3361 2.90626L6.51734 10.7031C6.41729 10.8186 6.29653 10.9113 6.16228 10.9756C6.02804 11.0399 5.88307 11.0746 5.73604 11.0775C5.58901 11.0804 5.44294 11.0515 5.30657 10.9926C5.1702 10.9336 5.04632 10.8458 4.94234 10.7344L1.08359 6.60001C0.97613 6.49272 0.889939 6.36335 0.83016 6.2196C0.77038 6.07585 0.738235 5.92067 0.735644 5.76333C0.733053 5.60598 0.760068 5.44968 0.815078 5.30376C0.870088 5.15784 0.951965 5.02529 1.05583 4.91401C1.15969 4.80273 1.2834 4.71501 1.41959 4.65607C1.55578 4.59713 1.70166 4.56818 1.84852 4.57096C1.99538 4.57374 2.14021 4.60818 2.27438 4.67223C2.40854 4.73628 2.52929 4.82862 2.62942 4.94376L5.68317 8.21407L10.748 1.30001C10.7571 1.28798 10.7654 1.2765 10.7757 1.26563Z" fill="#5B80DD"/>
</svg>
