<svg width="130" height="95" viewBox="0 0 130 95" fill="none" xmlns="http://www.w3.org/2000/svg">
<path d="M54.6627 40.624C61.1074 40.624 66.9372 41.226 71.0674 46.2423C73.7444 49.4935 76.2832 54.2729 74.5534 58.431C68.9558 71.8866 45.7959 72.3264 37.5915 61.0973C31.3921 52.6122 33.1985 35.6506 43.1281 30.7683C56.3698 24.2575 73.669 25.6446 85.114 34.4344C90.6231 38.6655 96.0762 43.3638 97.8276 50.0512C98.2652 51.7221 98.2968 54.1793 97.8276 55.8599C97.175 58.1977 98.8772 59.9714 99.8782 62.0495C105.712 74.1612 98.6762 91.5537 83.2684 92.8546C74.5889 93.5874 62.9163 91.6737 57.9436 84.2844C55.8296 81.1428 54.6627 77.5048 54.6627 73.8097C54.6627 72.1157 54.0736 77.2132 53.2273 78.7138C49.112 86.0104 36.6084 83.475 29.3379 83.475C20.6737 83.475 13.5167 79.4358 8.01179 73.3812C0.823472 65.4752 0.497225 54.4197 4.83337 45.0996C8.02666 38.2359 13.4784 30.557 22.3659 30.3398C29.9569 30.1543 31.1761 31.0962 32.7214 37.1959C33.5517 40.4733 32.5447 46.8996 27.9538 47.4326C23.5742 47.941 19.0242 38.2367 18.7261 35.0534C18.0998 28.3637 17.7299 19.5278 21.4944 13.6279C29.3076 1.38261 49.582 1.29587 63.1726 2.48666C71.4903 3.21544 79.9784 8.26548 84.3962 15.1039C87.9152 20.551 86.4595 28.1814 81.2178 32.0538C75.9617 35.937 72.554 36.1796 71.4775 29.2923C70.589 23.6073 71.9435 13.7271 77.9369 10.4379C87.5521 5.16102 100.614 9.82624 109.516 14.0564C121.863 19.9233 133.502 35.8202 125.203 48.4324C121.64 53.847 115.736 58.1743 109.516 60.764C106 62.2278 89.127 65.5177 87.8822 62.0495" stroke="#FC5A27" stroke-width="3" stroke-linecap="round"/>
</svg>
