<svg width="318" height="290" viewBox="0 0 318 290" fill="none" xmlns="http://www.w3.org/2000/svg">
<path d="M198.591 87.3336C222.338 150.161 199.222 217.027 146.96 236.682C94.6991 256.337 33.0825 221.339 9.33593 158.511C-14.4107 95.6831 8.70513 28.8175 60.9665 9.16237C113.228 -10.4927 174.844 24.5057 198.591 87.3336Z" fill="#F56D86"/>
<path d="M315.013 136.024C301.895 199.641 249.314 242.606 197.57 231.989C145.826 221.372 114.513 161.193 127.631 97.5764C140.749 33.9594 193.331 -9.00562 245.074 1.61135C296.818 12.2283 328.131 72.4068 315.013 136.024Z" fill="#F56D86"/>
<path d="M85.5306 67.2704C117.44 34.1679 170.209 33.1365 203.394 64.9668L252.188 111.769C285.372 143.599 286.406 196.238 254.497 229.34L222.257 262.785C190.348 295.888 137.579 296.919 104.394 265.089L55.6003 218.287C22.4156 186.456 21.3817 133.818 53.291 100.715L85.5306 67.2704Z" fill="#F56D86"/>
<path d="M272.531 216.979C228.909 275.203 169.741 304.656 140.377 282.764C111.012 260.872 122.571 195.926 166.194 137.702C209.816 79.4781 268.984 50.0251 298.348 71.9168C327.713 93.8085 316.154 158.755 272.531 216.979Z" fill="#F56D86"/>
<path d="M136.52 147.594C173.734 197.504 183.689 252.961 158.755 271.461C133.82 289.96 83.4391 264.497 46.2249 214.587C9.01066 164.677 -0.944124 109.22 23.9902 90.7206C48.9246 72.2209 99.3059 97.6839 136.52 147.594Z" fill="#F56D86"/>
</svg>
