<svg width="282" height="95" viewBox="0 0 282 95" fill="none" xmlns="http://www.w3.org/2000/svg">
<path d="M2 45.5329C8.20937 46.1539 13.9717 46.8423 20.3305 46.8423C24.1565 46.8423 37.1555 52.0351 37.3516 47.1332C37.7173 37.9896 38.8936 31.298 41.3523 22.6926C42.7972 17.6355 45.8158 23.8828 48.4808 26.5478C52.3155 30.3825 55.2396 34.4439 58.3007 38.6954C59.6999 40.6388 62.9328 42.4823 63.4652 44.8783C63.8687 46.6938 63.9874 50.3501 65.1382 51.7886C69.2156 56.8852 70.1958 45.0157 72.8486 41.605C77.8639 35.1568 82.9622 27.7223 85.7963 19.9285C87.6955 14.7058 92.9935 9.23453 93.6523 3.63476C94.3205 -2.04537 94.9616 8.78973 94.9616 10.1813C94.9616 14.9822 94.9616 19.783 94.9616 24.5838C94.9616 47.3943 98.8895 69.1919 98.8895 91.941C98.8895 95.5506 98.864 89.4342 99.1805 88.4495C100.534 84.2391 101.797 79.7431 103.472 75.6472C106.23 68.9057 107.76 61.7746 111.328 55.3528C116.243 46.5058 121.077 37.439 127.404 29.5302C129.456 26.9645 130.579 34.3675 132.641 36.6587C134.78 39.0353 136.818 44.456 138.169 47.4969C140.594 52.953 141.129 50.0027 143.406 44.8783C144.539 42.3299 147.783 33.0006 150.244 32.1488C155.913 30.1863 162.196 31.3138 167.992 29.5302C173.091 27.9615 178.533 28.5118 183.922 28.5118C195.197 28.5118 207.049 29.6372 218.037 32.1488C228.173 34.4656 240.969 32.4398 251.425 32.4398C259.606 32.4398 272.316 34.7603 279.575 31.1304" stroke="#5B80DD" stroke-width="3" stroke-linecap="round"/>
</svg>
