<svg width="339" height="292" viewBox="0 0 339 292" fill="none" xmlns="http://www.w3.org/2000/svg">
<path d="M219.591 87.3336C243.338 150.161 220.222 217.027 167.96 236.682C115.699 256.337 54.0825 221.339 30.3359 158.511C6.58934 95.6831 29.7051 28.8175 81.9665 9.16237C134.228 -10.4927 195.844 24.5057 219.591 87.3336Z" fill="#FFB7C4"/>
<path d="M336.013 136.024C322.895 199.641 270.314 242.606 218.57 231.989C166.826 221.372 135.513 161.193 148.631 97.5764C161.749 33.9594 214.331 -9.00562 266.074 1.61135C317.818 12.2283 349.131 72.4068 336.013 136.024Z" fill="#FFB7C4"/>
<path d="M106.531 67.2704C138.44 34.1679 191.209 33.1365 224.394 64.9668L273.188 111.769C306.372 143.599 307.406 196.238 275.497 229.34L243.257 262.785C211.348 295.888 158.579 296.919 125.394 265.089L76.6003 218.287C43.4156 186.456 42.3817 133.818 74.291 100.715L106.531 67.2704Z" fill="#FFB7C4"/>
<path d="M293.531 216.979C249.909 275.203 190.741 304.656 161.377 282.764C132.012 260.872 143.571 195.926 187.194 137.702C230.816 79.4781 289.984 50.0251 319.348 71.9168C348.713 93.8085 337.154 158.755 293.531 216.979Z" fill="#FFB7C4"/>
<path d="M157.52 147.594C194.734 197.504 204.689 252.961 179.755 271.461C154.82 289.96 104.439 264.497 67.2249 214.587C30.0107 164.677 20.0559 109.22 44.9902 90.7206C69.9246 72.2209 120.306 97.6839 157.52 147.594Z" fill="#FFB7C4"/>
<path d="M198.591 89.3336C222.338 152.161 199.222 219.027 146.96 238.682C94.6991 258.337 33.0825 223.339 9.33593 160.511C-14.4107 97.6831 8.70513 30.8175 60.9665 11.1624C113.228 -8.49274 174.844 26.5057 198.591 89.3336Z" fill="#F56D86"/>
<path d="M315.013 138.024C301.895 201.641 249.314 244.606 197.57 233.989C145.826 223.372 114.513 163.193 127.631 99.5764C140.749 35.9594 193.331 -7.00562 245.074 3.61135C296.818 14.2283 328.131 74.4068 315.013 138.024Z" fill="#F56D86"/>
<path d="M85.5306 69.2704C117.44 36.1679 170.209 35.1365 203.394 66.9668L252.188 113.769C285.372 145.599 286.406 198.238 254.497 231.34L222.257 264.785C190.348 297.888 137.579 298.919 104.394 267.089L55.6003 220.287C22.4156 188.456 21.3817 135.818 53.291 102.715L85.5306 69.2704Z" fill="#F56D86"/>
<path d="M272.531 218.979C228.909 277.203 169.741 306.656 140.377 284.764C111.012 262.872 122.571 197.926 166.194 139.702C209.816 81.4781 268.984 52.0251 298.348 73.9168C327.713 95.8085 316.154 160.755 272.531 218.979Z" fill="#F56D86"/>
<path d="M136.52 149.594C173.734 199.504 183.689 254.961 158.755 273.461C133.82 291.96 83.4391 266.497 46.2249 216.587C9.01066 166.677 -0.944124 111.22 23.9902 92.7206C48.9246 74.2209 99.3059 99.6839 136.52 149.594Z" fill="#F56D86"/>
</svg>
