<svg width="40" height="40" viewBox="0 0 40 40" fill="none" xmlns="http://www.w3.org/2000/svg">
<g clip-path="url(#clip0_26_321)">
<path d="M23.9426 2.60403L24.0159 2.64196L24.0975 2.65434L28.4865 3.32049L30.4755 7.28903L30.5125 7.36282L30.5712 7.42081L33.7295 10.539L33.0067 14.9186L32.9932 15L33.0067 15.0814L33.7295 19.461L30.5712 22.5792L30.5125 22.6372L30.4755 22.711L28.4865 26.6795L24.0975 27.3457L24.0159 27.358L23.9426 27.396L20 29.437L16.0573 27.396L15.9841 27.358L15.9025 27.3457L11.5135 26.6795L9.52449 22.711L9.4875 22.6372L9.42877 22.5792L6.27046 19.461L6.99331 15.0814L7.00675 15L6.99331 14.9186L6.27046 10.539L9.42877 7.42081L9.4875 7.36282L9.52449 7.28903L11.5135 3.32049L15.9025 2.65434L15.9841 2.64196L16.0573 2.60403L20 0.563025L23.9426 2.60403Z" fill="#F4DA53" stroke="#E85706"/>
<path d="M20.1213 37.0149L20 36.9846L19.8787 37.0149L10.5 39.3596V30.0665L14.8884 30.732L19.7701 33.259L20 33.378L20.2299 33.259L25.1116 30.732L29.5 30.0665V39.3596L20.1213 37.0149Z" fill="#F4DA53" stroke="#E85706"/>
</g>
<defs>
<clipPath id="clip0_26_321">
<rect width="40" height="40" fill="white"/>
</clipPath>
</defs>
</svg>
