<svg width="101" height="96" viewBox="0 0 101 96" fill="none" xmlns="http://www.w3.org/2000/svg">
<path d="M65.9918 28.9104C72.9538 49.7086 66.1767 71.8434 50.8548 78.35C35.5329 84.8565 17.4682 73.2708 10.5063 52.4726C3.54427 31.6744 10.3213 9.53958 25.6432 3.03306C40.9651 -3.47346 59.0298 8.11223 65.9918 28.9104Z" fill="#FFB7C4"/>
<path d="M100.124 45.0286C96.2783 66.088 80.8627 80.3109 65.6924 76.7963C50.5222 73.2817 41.3421 53.3606 45.188 32.3011C49.0339 11.2417 64.4495 -2.98117 79.6197 0.533412C94.79 4.04799 103.97 23.9692 100.124 45.0286Z" fill="#FFB7C4"/>
<path d="M32.8449 22.2688C42.2 11.3107 57.6708 10.9693 67.3998 21.5062L81.7051 36.9994C91.4342 47.5363 91.7373 64.9614 82.3822 75.9195L72.9302 86.991C63.5751 97.9491 48.1043 98.2905 38.3753 87.7536L24.07 72.2604C14.3409 61.7235 14.0378 44.2984 23.3929 33.3403L32.8449 22.2688Z" fill="#FFB7C4"/>
<path d="M87.6695 71.8274C74.8803 91.1015 57.5336 100.851 48.9246 93.6046C40.3156 86.3577 43.7043 64.8582 56.4935 45.5841C69.2828 26.31 86.6295 16.56 95.2385 23.8069C103.848 31.0538 100.459 52.5533 87.6695 71.8274Z" fill="#FFB7C4"/>
<path d="M47.7939 48.8587C58.7043 65.3806 61.6229 83.7388 54.3126 89.8628C47.0024 95.9869 32.2317 87.5577 21.3213 71.0358C10.4109 54.5139 7.49237 36.1557 14.8026 30.0316C22.1128 23.9076 36.8835 32.3367 47.7939 48.8587Z" fill="#FFB7C4"/>
<path d="M57.1444 31.0815C63.9775 51.2066 57.3259 72.6251 42.2878 78.9211C27.2496 85.217 9.51947 74.0063 2.68641 53.8812C-4.14666 33.756 2.50489 12.3375 17.5431 6.04159C32.5812 -0.254359 50.3114 10.9564 57.1444 31.0815Z" fill="#F56D86"/>
<path d="M90.6448 46.678C86.8701 67.0559 71.7399 80.8185 56.8506 77.4177C41.9613 74.0168 32.9512 54.7404 36.7259 34.3625C40.5006 13.9846 55.6307 0.221997 70.52 3.62284C85.4093 7.02368 94.4195 26.3001 90.6448 46.678Z" fill="#F56D86"/>
<path d="M24.6114 24.6548C33.7932 14.0514 48.9775 13.721 58.5264 23.9169L72.5668 38.9087C82.1156 49.1046 82.4131 65.9658 73.2313 76.5693L63.9544 87.2824C54.7725 97.8859 39.5882 98.2162 30.0394 88.0203L15.9989 73.0285C6.45007 62.8326 6.15258 45.9715 15.3345 35.368L24.6114 24.6548Z" fill="#F56D86"/>
<path d="M78.4207 72.6096C65.8683 91.26 48.8429 100.694 40.3933 93.682C31.9437 86.6696 35.2697 65.8659 47.8221 47.2156C60.3745 28.5652 77.3999 19.1308 85.8495 26.1432C94.2991 33.1555 90.9731 53.9593 78.4207 72.6096Z" fill="#F56D86"/>
<path d="M39.2836 50.3842C49.9919 66.3714 52.8564 84.1355 45.6816 90.0613C38.5067 95.9872 24.0095 87.8308 13.3012 71.8436C2.59281 55.8564 -0.271671 38.0923 6.90317 32.1664C14.078 26.2406 28.5752 34.3969 39.2836 50.3842Z" fill="#F56D86"/>
</svg>
