<svg width="105" height="107" viewBox="0 0 105 107" fill="none" xmlns="http://www.w3.org/2000/svg">
<path d="M2.5 52C2.5 24.6619 24.6619 2.5 52 2.5C79.3381 2.5 101.5 24.6619 101.5 52V55C101.5 82.3381 79.3381 104.5 52 104.5C24.6619 104.5 2.5 82.3381 2.5 55V52Z" stroke="#F43838" stroke-width="5"/>
<path d="M19.424 15.328V17.752H38.504V15.328H19.424ZM20.432 19.048V21.376H37.64V19.048H20.432ZM18.104 22.744V25.216H39.872V22.744H18.104ZM18.56 26.968V29.464H39.488V26.968H18.56ZM32.888 24.928V32.92C32.888 33.232 32.792 33.328 32.408 33.328C32.048 33.328 30.752 33.328 29.6 33.28C29.984 34.072 30.44 35.272 30.56 36.088C32.312 36.088 33.632 36.04 34.616 35.608C35.576 35.152 35.84 34.384 35.84 32.992V24.928H32.888ZM27.176 13.576C26.192 23.056 23.864 29.632 17.576 33.112C18.32 33.64 19.688 34.816 20.168 35.392C26.528 31.288 29.12 24.16 30.32 13.888L27.176 13.576ZM24.32 31.648C25.304 32.728 26.528 34.24 27.056 35.2L29.528 33.568C28.928 32.608 27.656 31.192 26.648 30.208L24.32 31.648ZM52.904 16.312C55.064 18.904 59.24 21.856 62.84 23.512C63.368 22.648 64.04 21.64 64.76 20.896C60.896 19.552 56.984 16.888 54.272 13.6H51.248C49.376 16.264 45.416 19.408 41.288 21.16C41.912 21.76 42.704 22.888 43.064 23.584C47 21.712 50.84 18.856 52.904 16.312ZM48.104 19.816V22.384H57.8V19.816H48.104ZM45.176 23.824V26.32H49.28V30.016H45.176V32.512H51.872V23.824H45.176ZM53.456 23.848V36.256H56.168V26.344H60.344V23.848H53.456ZM59.552 23.848V30.976C59.552 31.264 59.456 31.312 59.168 31.336C58.856 31.336 57.872 31.336 56.936 31.288C57.272 32.008 57.632 33.112 57.704 33.904C59.288 33.904 60.416 33.88 61.256 33.448C62.096 33.04 62.312 32.272 62.312 31.048V23.848H59.552ZM43.952 23.824V34.432H46.52V23.824H43.952ZM71.96 20.704H82.04V22.192H71.96V20.704ZM71.96 24.544H82.04V26.032H71.96V24.544ZM71.96 16.888H82.04V18.376H71.96V16.888ZM69.176 14.368V28.552H84.968V14.368H69.176ZM78.104 26.608V32.368C78.104 35.104 78.8 35.968 81.68 35.968C82.232 35.968 84.248 35.968 84.848 35.968C87.248 35.968 88.016 34.984 88.328 31.168C87.536 30.976 86.264 30.496 85.688 30.016C85.568 32.848 85.424 33.256 84.584 33.256C84.08 33.256 82.472 33.256 82.064 33.256C81.2 33.256 81.032 33.136 81.032 32.368V26.608H78.104ZM72.224 27.592C71.912 30.808 71.264 32.656 65.696 33.688C66.296 34.312 67.064 35.488 67.304 36.256C73.784 34.792 74.912 31.96 75.32 27.592H72.224ZM24.488 43.56L24.008 46.344C26.888 46.8 31.352 47.328 33.872 47.544L34.256 44.712C31.784 44.568 27.176 44.064 24.488 43.56ZM35.12 51.168L33.344 49.176C33.104 49.272 32.432 49.416 32 49.464C29.984 49.704 24.56 49.944 23.408 49.968C22.544 49.968 21.68 49.944 21.128 49.896L21.392 53.208C21.896 53.112 22.64 52.992 23.48 52.92C24.848 52.8 27.704 52.56 29.384 52.512C27.2 54.816 22.304 59.688 21.056 60.936C20.408 61.56 19.832 62.064 19.4 62.448L22.232 64.416C23.888 62.328 25.688 60.36 26.528 59.52C27.104 58.92 27.608 58.536 28.088 58.536C28.592 58.536 29.096 58.848 29.36 59.712C29.552 60.312 29.816 61.44 30.08 62.16C30.656 63.696 31.904 64.2 34.16 64.2C35.408 64.2 37.88 64.032 38.864 63.864L39.08 60.72C37.856 60.96 36.2 61.128 34.376 61.128C33.44 61.128 32.912 60.768 32.672 60.024C32.48 59.376 32.216 58.464 32 57.84C31.664 56.928 31.232 56.4 30.56 56.208C30.272 56.088 29.84 56.016 29.624 56.016C30.2 55.416 32.456 53.328 33.536 52.392C33.968 52.032 34.472 51.6 35.12 51.168ZM45.5534 44.736L45.6494 47.856C46.2014 47.76 46.9454 47.712 47.5934 47.664C48.8894 47.568 52.2014 47.448 53.4254 47.4C52.2494 48.456 49.7294 50.472 48.3854 51.576C46.9934 52.752 44.0894 55.2 42.3854 56.544L44.5694 58.8C47.1374 55.896 49.5134 53.928 53.2094 53.928C56.0174 53.928 58.1774 55.392 58.1774 57.576C58.1774 60.144 56.1134 61.68 52.0574 61.68C50.5934 61.68 49.6094 61.08 49.6094 60.192C49.6094 59.568 50.2094 59.016 51.0974 59.016C52.5134 59.016 53.4254 60.216 53.4734 61.944L56.2814 61.584C56.2094 58.944 54.3854 56.736 51.0974 56.736C48.5534 56.736 46.7774 58.512 46.7774 60.456C46.7774 62.88 49.2974 64.392 52.6334 64.392C58.4414 64.392 61.3214 61.392 61.3214 57.6C61.3214 54.12 58.2254 51.576 54.1454 51.576C53.4014 51.576 52.6814 51.624 51.8654 51.84C53.4014 50.64 55.9214 48.528 57.2174 47.616C57.7454 47.208 58.3214 46.872 58.8734 46.512L57.3374 44.352C57.0494 44.448 56.4974 44.544 55.4894 44.616C54.1214 44.736 49.0094 44.856 47.7134 44.856C47.0414 44.856 46.2254 44.808 45.5534 44.736ZM75.7214 43.248V60.504C75.7214 63.912 76.6094 64.872 79.6334 64.872C80.2814 64.872 83.0654 64.872 83.7614 64.872C86.5934 64.872 87.3614 63.336 87.7214 59.184C86.9054 59.016 85.7294 58.488 85.0334 57.984C84.8654 61.368 84.6734 62.208 83.4974 62.208C82.9214 62.208 80.5214 62.208 79.9934 62.208C78.8174 62.208 78.6494 61.968 78.6494 60.528V43.248H75.7214ZM84.7214 47.256C82.5854 49.08 79.3934 51.24 76.4174 52.656C76.8254 53.28 77.3774 54.288 77.5694 54.96C80.6894 53.496 84.1214 51.696 86.8334 49.776L84.7214 47.256ZM71.0894 42.936C69.6014 46.56 67.0814 50.112 64.4894 52.344C65.0174 53.064 65.8574 54.648 66.1454 55.392C69.1694 52.608 72.1214 48.168 73.9214 43.896L71.0894 42.936ZM68.5454 49.704V65.112H71.4254V46.92L71.3774 46.872L68.5454 49.704ZM39.896 75.776L38 74C37.544 74.12 36.224 74.216 35.552 74.216C34.304 74.216 24.128 74.216 22.616 74.216C21.632 74.216 20.624 74.096 19.688 73.952V77.312C20.816 77.192 21.632 77.144 22.616 77.144C24.128 77.144 33.68 77.144 35.144 77.144C34.52 78.32 32.648 80.432 30.704 81.608L33.2 83.6C35.576 81.92 37.856 78.872 38.984 77C39.2 76.664 39.656 76.088 39.896 75.776ZM30.128 78.992H26.648C26.768 79.784 26.792 80.408 26.792 81.176C26.792 85.112 26.216 87.632 23.192 89.744C22.304 90.416 21.44 90.824 20.648 91.088L23.456 93.368C29.984 89.84 30.128 84.944 30.128 78.992ZM60.272 74.408C60.272 73.64 60.896 73.016 61.664 73.016C62.432 73.016 63.056 73.64 63.056 74.408C63.056 75.176 62.432 75.8 61.664 75.8C60.896 75.8 60.272 75.176 60.272 74.408ZM58.784 74.408C58.784 75.992 60.08 77.288 61.664 77.288C63.248 77.288 64.544 75.992 64.544 74.408C64.544 72.824 63.248 71.528 61.664 71.528C60.08 71.528 58.784 72.824 58.784 74.408ZM61.712 76.304L59.336 74.792C58.712 74.96 57.944 74.984 57.464 74.984C56.12 74.984 48.152 74.984 46.352 74.984C45.56 74.984 44.216 74.864 43.496 74.768V78.176C44.12 78.128 45.248 78.056 46.352 78.056C48.152 78.056 56.072 78.056 57.536 78.056C57.224 80.12 56.312 82.856 54.704 84.848C52.784 87.272 50.072 89.36 45.296 90.464L47.912 93.344C52.208 91.976 55.4 89.6 57.56 86.72C59.576 84.056 60.632 80.312 61.184 77.96C61.304 77.456 61.472 76.76 61.712 76.304ZM84.248 73.376H80.624C80.72 74.048 80.792 74.816 80.792 75.8C80.792 76.832 80.792 79.136 80.792 80.336C80.792 84.08 80.456 85.88 78.824 87.68C77.36 89.24 75.44 90.152 73.04 90.704L75.56 93.368C77.312 92.792 79.784 91.64 81.368 89.888C83.168 87.92 84.176 85.712 84.176 80.528C84.176 79.352 84.176 77.024 84.176 75.8C84.176 74.816 84.2 74.048 84.248 73.376ZM73.136 73.592H69.656C69.728 74.144 69.752 74.984 69.752 75.416C69.752 76.472 69.752 82.136 69.752 83.504C69.752 84.248 69.68 85.184 69.632 85.616H73.136C73.088 85.064 73.04 84.128 73.04 83.528C73.04 82.184 73.04 76.472 73.04 75.416C73.04 74.672 73.088 74.144 73.136 73.592Z" fill="#F43838"/>
</svg>
