<svg width="290" height="245" viewBox="0 0 290 245" fill="none" xmlns="http://www.w3.org/2000/svg">
<path d="M209.975 137.202C209.975 154.976 181.275 169.385 145.872 169.385C110.469 169.385 81.7693 154.976 81.7693 137.202C81.7693 119.428 110.469 105.019 145.872 105.019C181.275 105.019 209.975 119.428 209.975 137.202Z" fill="#EE7531"/>
<ellipse cx="36.3418" cy="121.11" rx="36.3418" ry="9.31617" fill="#EE7531"/>
<ellipse cx="39.2541" cy="9.03617" rx="39.2541" ry="9.03617" transform="matrix(0.882282 -0.470722 0.186189 0.982514 31.2942 196.177)" fill="#EE7531"/>
<ellipse cx="44.765" cy="8.41695" rx="44.765" ry="8.41695" transform="matrix(0.686501 -0.727129 0.352115 0.935957 180.7 88.8138)" fill="#EE7531"/>
<ellipse cx="38.175" cy="9.14345" rx="38.175" ry="9.14345" transform="matrix(0.924465 0.381267 -0.14494 0.98944 219.417 150.018)" fill="#EE7531"/>
<ellipse cx="24.5666" cy="8.75099" rx="24.5666" ry="8.75099" transform="matrix(0.51288 0.85846 -0.511026 0.859565 184.596 176.16)" fill="#EE7531"/>
<path d="M157.888 9.78893C160.359 10.5178 160.561 28.3 158.339 49.5065C156.117 70.713 152.313 87.3134 149.842 86.5845C147.371 85.8557 147.169 68.0735 149.39 46.867C151.612 25.6605 155.417 9.06005 157.888 9.78893Z" fill="#EE7531"/>
<ellipse cx="21.4429" cy="8.51566" rx="21.4429" ry="8.51566" transform="matrix(0.713558 -0.700596 0.329287 0.94423 103.978 206.206)" fill="#EE7531"/>
<ellipse cx="46.3278" cy="8.21718" rx="46.3278" ry="8.21718" transform="matrix(0.635205 0.772344 -0.396479 0.918044 55.9169 12.3794)" fill="#EE7531"/>
<ellipse cx="46.1639" cy="8.17834" rx="46.1639" ry="8.17834" transform="matrix(0.44852 0.893773 -0.577722 0.816233 77.0858 0)" fill="#F4DA53"/>
<ellipse cx="32.4187" cy="10.341" rx="32.4187" ry="10.341" transform="matrix(0.986937 -0.161105 0.0578828 0.998323 3.13623 141.212)" fill="#F4DA53"/>
<ellipse cx="37.1782" cy="9.73072" rx="37.1782" ry="9.73072" transform="matrix(0.780134 0.625613 -0.273941 0.961747 214.297 155.834)" fill="#F4DA53"/>
<ellipse cx="33.6945" cy="6.2571" rx="33.6945" ry="6.2571" transform="matrix(0.347186 -0.937796 -0.692311 -0.721599 126.775 245)" fill="#F4DA53"/>
<ellipse cx="32.6702" cy="10.3033" rx="32.6702" ry="10.3033" transform="matrix(0.975018 -0.222125 0.0806543 0.996742 217.042 116.145)" fill="#F4DA53"/>
<ellipse cx="34.798" cy="7.06287" rx="34.798" ry="7.06287" transform="matrix(-0.259896 0.965637 -0.797025 -0.603947 184.623 19.7972)" fill="#F4DA53"/>
<ellipse cx="39.1519" cy="8.73244" rx="39.1519" ry="8.73244" transform="matrix(0.886213 -0.463278 0.182559 0.983195 212.438 110.571)" fill="#EE7531"/>
<path d="M112.064 135.239C110.939 135.239 109.936 135.045 109.055 134.659C108.18 134.273 107.484 133.736 106.967 133.048C106.456 132.355 106.178 131.551 106.132 130.636H108.28C108.325 131.199 108.518 131.685 108.859 132.094C109.2 132.497 109.646 132.81 110.197 133.031C110.749 133.253 111.359 133.364 112.03 133.364C112.78 133.364 113.445 133.233 114.024 132.972C114.604 132.71 115.058 132.347 115.388 131.881C115.717 131.415 115.882 130.875 115.882 130.261C115.882 129.619 115.723 129.054 115.405 128.565C115.087 128.071 114.621 127.685 114.007 127.406C113.393 127.128 112.643 126.989 111.757 126.989H110.359V125.114H111.757C112.45 125.114 113.058 124.989 113.581 124.739C114.109 124.489 114.521 124.136 114.817 123.682C115.118 123.227 115.268 122.693 115.268 122.08C115.268 121.489 115.138 120.974 114.876 120.537C114.615 120.099 114.246 119.759 113.768 119.514C113.297 119.27 112.74 119.148 112.098 119.148C111.496 119.148 110.928 119.259 110.393 119.48C109.865 119.696 109.433 120.011 109.098 120.426C108.763 120.835 108.581 121.33 108.553 121.909H106.507C106.541 120.994 106.817 120.193 107.334 119.506C107.851 118.812 108.527 118.273 109.362 117.886C110.203 117.5 111.126 117.307 112.132 117.307C113.212 117.307 114.138 117.526 114.911 117.963C115.683 118.395 116.277 118.966 116.692 119.676C117.107 120.386 117.314 121.153 117.314 121.977C117.314 122.96 117.055 123.798 116.538 124.491C116.027 125.185 115.331 125.665 114.45 125.932V126.068C115.553 126.25 116.413 126.719 117.033 127.474C117.652 128.224 117.962 129.153 117.962 130.261C117.962 131.21 117.703 132.062 117.186 132.818C116.675 133.568 115.976 134.159 115.089 134.591C114.203 135.023 113.195 135.239 112.064 135.239ZM121.369 122.472L122.257 124.608C124.177 123.84 130.273 121.2 134.233 121.2C137.473 121.2 139.321 123.192 139.321 125.712C139.321 130.608 133.705 132.528 127.441 132.696L128.305 134.688C135.697 134.256 141.409 131.496 141.409 125.736C141.409 121.728 138.241 119.424 134.281 119.424C130.777 119.424 126.049 121.152 124.033 121.8C123.121 122.064 122.257 122.328 121.369 122.472ZM149.521 124.32H144.745V126H147.793V132.816H149.521V124.32ZM149.521 132.096H147.961C146.833 133.128 145.537 134.208 144.481 134.976L145.417 136.728C146.617 135.672 147.721 134.64 148.777 133.608C150.265 135.504 152.449 136.344 155.617 136.464C158.305 136.584 163.441 136.536 166.153 136.416C166.225 135.888 166.513 135.048 166.729 134.64C163.825 134.832 158.281 134.904 155.617 134.784C152.761 134.688 150.649 133.872 149.521 132.096ZM144.961 116.448C146.425 117.624 148.081 119.304 148.753 120.504L150.241 119.376C149.497 118.2 147.817 116.544 146.329 115.464L144.961 116.448ZM153.721 121.512C154.225 122.28 154.681 123.336 154.801 124.032L156.457 123.6C156.289 122.904 155.809 121.872 155.257 121.128L153.721 121.512ZM152.257 116.688V118.032H164.761V116.688H152.257ZM152.089 126.816V128.16H165.097V126.816H152.089ZM151.177 123.84V125.208H166.057V123.84H151.177ZM150.649 119.832V121.224H166.393V119.832H150.649ZM150.889 129.96V131.352H166.201V129.96H150.889ZM157.489 114.84V120.72H159.289V114.84H157.489ZM157.489 124.464V133.632H159.289V124.464H157.489ZM161.401 121.032C161.161 121.752 160.657 122.88 160.273 123.624L161.689 124.056C162.121 123.408 162.649 122.448 163.153 121.512L161.401 121.032ZM171.721 123.84V125.52H177.697V123.84H171.721ZM176.977 123.84V124.152C176.905 129.336 176.785 131.136 176.425 131.568C176.257 131.784 176.017 131.808 175.681 131.808C175.273 131.808 174.217 131.808 173.137 131.712C173.401 132.168 173.593 132.864 173.641 133.392C174.817 133.44 175.897 133.464 176.521 133.392C177.193 133.32 177.577 133.152 177.961 132.72C178.465 132.048 178.609 130.032 178.729 124.608C178.729 124.368 178.729 123.84 178.729 123.84H176.977ZM183.745 116.064C185.257 116.856 187.105 118.08 188.017 118.92L189.145 117.696C188.209 116.856 186.313 115.704 184.825 114.936L183.745 116.064ZM187.177 122.568C185.377 128.352 181.993 132.744 177.121 135.336C177.505 135.696 178.177 136.44 178.441 136.8C183.361 133.896 186.937 129.264 188.977 123L187.177 122.568ZM171.865 118.92V120.696H190.441V118.92H171.865ZM170.713 118.92V125.664C170.713 128.808 170.497 132.936 168.505 135.888C168.937 136.104 169.705 136.728 170.017 137.088C172.201 133.944 172.585 129.096 172.585 125.688V118.92H170.713ZM180.673 114.888C180.769 126.384 182.929 136.752 187.825 136.752C189.649 136.752 190.321 135.576 190.657 131.472C190.177 131.304 189.505 130.896 189.097 130.488C188.953 133.68 188.641 134.928 187.969 134.928C184.849 134.928 182.497 125.928 182.545 114.888H180.673ZM134.68 143.912C133.84 147.752 132.376 151.496 130.336 153.848C130.84 154.088 131.704 154.568 132.064 154.856C134.008 152.312 135.592 148.4 136.552 144.248L134.68 143.912ZM138.64 149.792H137.68V153.008C137.68 155.288 136.432 161.576 129.112 164.456C129.448 164.792 130 165.536 130.216 165.92C136.024 163.496 138.208 158.672 138.616 156.392C139 158.648 141.04 163.616 146.08 165.92C146.368 165.488 146.92 164.744 147.256 164.312C140.728 161.504 139.552 155.144 139.552 153.008V149.792H138.64ZM124.888 160.976L126.064 162.464C127.696 160.904 129.712 158.816 131.488 156.896L130.504 155.336C128.464 157.472 126.28 159.68 124.888 160.976ZM125.656 146.744C127.216 147.824 129.112 149.408 130.024 150.464L131.368 149C130.432 147.968 128.488 146.456 126.928 145.448L125.656 146.744ZM134.728 148.184L133.912 149.96H145.528V148.184H134.728ZM144.904 148.184V148.616C144.496 150.464 143.464 153.008 142.672 154.448C143.128 154.64 143.824 155 144.208 155.216C145.096 153.608 146.224 151.112 146.848 148.808L145.528 148.064L145.192 148.184H144.904ZM149.32 157.424L151.096 159.248C151.48 158.744 152.032 158.024 152.512 157.376C153.736 155.888 155.704 153.248 156.832 151.856C157.648 150.848 158.104 150.656 159.136 151.784C160.24 153.008 162.088 155.336 163.648 157.088C165.28 158.96 167.464 161.408 169.288 163.136L170.824 161.384C168.664 159.464 166.264 156.944 164.824 155.36C163.288 153.704 161.44 151.328 160 149.864C158.416 148.232 157.168 148.472 155.776 150.128C154.336 151.808 152.344 154.544 151.048 155.84C150.424 156.488 149.92 156.968 149.32 157.424Z" fill="white"/>
</svg>
